<svg width="1300" height="777" viewBox="0 0 1300 777" fill="none" xmlns="http://www.w3.org/2000/svg">
<path fill-rule="evenodd" clip-rule="evenodd" d="M-11.0001 641.365C28.3103 650.731 66.2084 661.297 104.001 673.448C214.233 708.892 291.991 754.353 399.999 766.49C482.79 775.795 564.11 766.329 643 741.894C668.334 731.911 693.666 721.93 719 711.949C747.333 696.977 775.667 682.004 804 667.032C831.333 650.99 858.666 634.948 886 618.907C932.981 590.14 985.896 574.327 1040 572.92C1093 571.542 1145.51 584.031 1193 609.281C1233.67 629.957 1274.33 650.634 1315 671.31C1315 671.31 1348 209.127 1369 22.1523C1390 -164.822 173.114 -212.68 -18.0004 -10.9996C-209.115 190.681 -13.3341 423.91 -11.0001 641.365Z" fill="white"/>
<mask id="mask0" mask-type="alpha" maskUnits="userSpaceOnUse" x="0" y="-142" width="1472" height="913">
<path fill-rule="evenodd" clip-rule="evenodd" d="M-11.0001 641.365C28.3103 650.731 66.2084 661.297 104.001 673.448C214.233 708.892 291.991 754.353 399.999 766.49C482.79 775.795 564.11 766.329 643 741.894C668.334 731.911 693.666 721.93 719 711.949C747.333 696.977 775.667 682.004 804 667.032C831.333 650.99 858.666 634.948 886 618.907C932.981 590.14 985.896 574.327 1040 572.92C1093 571.542 1145.51 584.031 1193 609.281C1233.67 629.957 1574.33 729.634 1505 641.31C1315 671.31 1348 209.127 1369 22.1523C1390 -164.822 173.114 -212.68 -18.0004 -10.9996C-209.115 190.681 -13.3341 423.91 -11.0001 641.365Z" fill="white"/>
</mask>
<g mask="url(#mask0)">
<path fill-rule="evenodd" clip-rule="evenodd" d="M-88.9999 -36.9997H1422V863H-88.9999V-36.9997Z" fill="url(#paint0_linear)"/>
</g>
<defs>
<linearGradient id="paint0_linear" x1="1183.2" y1="1006.96" x2="1364.32" y2="48.5545" gradientUnits="userSpaceOnUse">
<stop stop-color="#2F2B4C"/>
<stop offset="1" stop-color="#2F2B4C"/>
<stop offset="1" stop-color="#4D2B78"/>
<stop offset="1" stop-color="#4D2B78"/>
</linearGradient>
</defs>
</svg>
